HIERARCHY
ROOT Hips
{
	OFFSET 0.000000 0.000000 0.000000
	CHANNELS 6 Xposition Yposition Zposition Xrotation Yrotation Zrotation
	JOINT LeftUpLeg_virtual
	{
		OFFSET 0.000000 0.000000 0.000000
		CHANNELS 3 Xrotation Yrotation Zrotation
		JOINT LeftUpLeg
		{
			OFFSET 11.394100 -6.187798 -0.413800
			CHANNELS 3 Xrotation Yrotation Zrotation
			JOINT LeftLeg
			{
				OFFSET 0.430247 -32.302673 3.732800
				CHANNELS 3 Xrotation Yrotation Zrotation
				JOINT LeftFoot
				{
					OFFSET -0.430247 -48.264931 -6.423300
					CHANNELS 3 Xrotation Yrotation Zrotation
					JOINT LeftToeBase
					{
						OFFSET 4.230900 -16.068199 23.438400
						CHANNELS 3 Xrotation Yrotation Zrotation
						JOINT LeftToe_End
						{
							OFFSET 4.510700 0.695400 19.974600
							CHANNELS 3 Xrotation Yrotation Zrotation
							End Site
							{
								OFFSET 0 0 0
							}
						}
					}
				}
			}
		}
	}
	JOINT RightUpLeg_virtual
	{
		OFFSET 0.000000 0.000000 0.000000
		CHANNELS 3 Xrotation Yrotation Zrotation
		JOINT RightUpLeg
		{
			OFFSET -11.333700 -6.187798 -0.413800
			CHANNELS 3 Xrotation Yrotation Zrotation
			JOINT RightLeg
			{
				OFFSET -0.430392 -32.302628 3.733000
				CHANNELS 3 Xrotation Yrotation Zrotation
				JOINT RightFoot
				{
					OFFSET 0.430392 -48.264973 -6.423500
					CHANNELS 3 Xrotation Yrotation Zrotation
					JOINT RightToeBase
					{
						OFFSET -4.230900 -16.068199 23.438400
						CHANNELS 3 Xrotation Yrotation Zrotation
						JOINT RightToe_End
						{
							OFFSET -4.510700 0.695400 19.974600
							CHANNELS 3 Xrotation Yrotation Zrotation
							End Site
							{
								OFFSET 0 0 0
							}
						}
					}
				}
			}
		}
	}
	JOINT Spine_virtual
	{
		OFFSET 0.000000 0.000000 0.000000
		CHANNELS 3 Xrotation Yrotation Zrotation
		JOINT Spine
		{
			OFFSET -0.002400 12.777504 0.315300
			CHANNELS 3 Xrotation Yrotation Zrotation
			JOINT Spine1
			{
				OFFSET -0.002067 5.816869 0.032633
				CHANNELS 3 Xrotation Yrotation Zrotation
				JOINT Spine1_split
				{
					OFFSET -0.002067 5.816869 0.032633
					CHANNELS 3 Xrotation Yrotation Zrotation
					JOINT Spine2
					{
						OFFSET -0.002067 5.816869 0.032633
						CHANNELS 3 Xrotation Yrotation Zrotation
						JOINT Neck_virtual
						{
							OFFSET 0.000000 0.000000 0.000000
							CHANNELS 3 Xrotation Yrotation Zrotation
							JOINT Neck
							{
								OFFSET -0.003700 21.199493 -0.826900
								CHANNELS 3 Xrotation Yrotation Zrotation
								JOINT Head
								{
									OFFSET 0.000000 20.442200 4.834800
									CHANNELS 3 Xrotation Yrotation Zrotation
									JOINT HeadTop_End
									{
										OFFSET 0.000000 34.668396 4.968400
										CHANNELS 3 Xrotation Yrotation Zrotation
										End Site
										{
											OFFSET 0 0 0
										}
									}
								}
							}
						}
						JOINT LeftShoulder_virtual
						{
							OFFSET 0.000000 0.000000 0.000000
							CHANNELS 3 Xrotation Yrotation Zrotation
							JOINT LeftShoulder
							{
								OFFSET 3.288150 8.794197 -1.372250
								CHANNELS 3 Xrotation Yrotation Zrotation
								JOINT LeftShoulder_split
								{
									OFFSET 3.288150 8.794197 -1.372250
									CHANNELS 3 Xrotation Yrotation Zrotation
									JOINT LeftArm
									{
										OFFSET 11.953299 -2.279007 -0.146200
										CHANNELS 3 Xrotation Yrotation Zrotation
										JOINT LeftForeArm
										{
											OFFSET 18.448900 0.000000 0.000000
											CHANNELS 3 Xrotation Yrotation Zrotation
											JOINT LeftHand
											{
												OFFSET 29.527798 0.000000 0.000000
												CHANNELS 3 Xrotation Yrotation Zrotation
												End Site
												{
													OFFSET 0 0 0
												}
											}
										}
									}
								}
							}
						}
						JOINT RightShoulder_virtual
						{
							OFFSET 0.000000 0.000000 0.000000
							CHANNELS 3 Xrotation Yrotation Zrotation
							JOINT RightShoulder
							{
								OFFSET -3.249400 8.794197 -1.372250
								CHANNELS 3 Xrotation Yrotation Zrotation
								JOINT RightShoulder_split
								{
									OFFSET -3.249400 8.794197 -1.372250
									CHANNELS 3 Xrotation Yrotation Zrotation
									JOINT RightArm
									{
										OFFSET -11.953299 -2.279007 -0.146200
										CHANNELS 3 Xrotation Yrotation Zrotation
										JOINT RightForeArm
										{
											OFFSET -18.448900 0.000000 0.000000
											CHANNELS 3 Xrotation Yrotation Zrotation
											JOINT RightHand
											{
												OFFSET -29.527802 0.000000 0.000000
												CHANNELS 3 Xrotation Yrotation Zrotation
												End Site
												{
													OFFSET 0 0 0
												}
											}
										}
									}
								}
							}
						}
					}
				}
			}
		}
	}
}
MOTION
Frames: 7
Frame Time: 0.03333333
16.182472 39.216049 -10.812775 0.000000 0.000000 0.000000 3.771382 -24.482448 9.788971 -105.525344 -21.391258 35.649445 72.085885 -8.531070 1.635952 48.459864 15.350364 -28.568665 -2.375225 -5.988116 -1.051023 0.000000 0.000000 0.000000 1.569262 -23.054605 9.190786 -28.762350 -9.624033 -25.838739 116.364143 18.347292 -17.044679 23.418227 -29.674170 44.142884 16.425333 3.315869 -32.290696 0.000000 0.000000 0.000000 1.474832 -14.114351 8.861751 7.236848 -2.379312 -6.192920 2.838202 -7.195092 -0.211790 0.160662 -0.149314 0.031156 0.000000 0.000000 0.000000 3.039773 -4.674698 -0.974125 -3.570016 8.036113 9.114176 -9.970086 10.439771 1.009730 0.000000 0.000000 0.000000 2.178645 -6.128650 -1.464484 3.353913 -1.558597 -0.704070 -1.566063 1.051673 -0.916978 -0.879023 -13.995823 -45.579205 58.563804 -81.626512 52.132447 0.000000 0.000000 0.000000 4.916719 -5.651522 -1.290111 1.839193 5.690202 5.653810 0.386817 5.579884 5.171486 -26.962810 2.816897 28.965470 -123.004303 76.951329 136.170053 0.000000 0.000000 0.000000 
16.141144 39.277668 -10.832741 0.000000 0.000000 0.000000 3.749491 -24.511039 9.880641 -105.284183 -21.283370 35.723331 71.862503 -8.412195 1.496733 48.490832 15.483716 -28.448272 -2.423343 -5.991063 -1.168245 0.000000 0.000000 0.000000 1.527920 -23.119707 9.283756 -28.937770 -9.696870 -25.817644 116.357190 18.271132 -17.000800 23.533111 -29.568722 43.933689 16.987357 3.145103 -32.366511 0.000000 0.000000 0.000000 1.355257 -14.155633 8.914820 7.266931 -2.098197 -6.414318 2.760918 -7.238034 -0.297923 0.147940 -0.120025 0.025418 0.000000 0.000000 0.000000 2.919359 -4.741132 -1.063282 -3.985587 7.669118 9.180877 -9.678178 11.391379 1.297688 0.000000 0.000000 0.000000 2.055427 -6.190894 -1.537499 3.330423 -1.756282 -0.120916 -1.580499 1.139902 -0.996791 -0.505820 -13.859180 -45.968037 56.116274 -81.538190 49.752273 0.000000 0.000000 0.000000 4.771679 -5.707436 -1.369224 1.918231 5.984242 6.005583 0.521058 5.686839 5.276283 -25.332342 3.609113 27.014394 -136.264583 74.987376 149.155499 0.000000 0.000000 0.000000 
16.100817 39.312603 -10.853149 0.000000 0.000000 0.000000 3.712370 -24.541937 9.930327 -105.091893 -21.190756 35.830506 71.695915 -8.324789 1.378692 48.540491 15.538790 -28.323912 -2.459546 -5.992401 -1.272708 0.000000 0.000000 0.000000 1.475839 -23.176358 9.327042 -29.014524 -9.805170 -25.752547 116.321933 18.199461 -16.970379 23.639969 -29.442155 43.757539 17.556204 2.973751 -32.463814 0.000000 0.000000 0.000000 1.245049 -14.201092 8.934513 7.302770 -1.837494 -6.609811 2.669443 -7.284025 -0.393533 0.129823 -0.103680 0.014795 0.000000 0.000000 0.000000 2.802042 -4.811426 -1.150221 -4.374107 7.365638 9.213735 -9.330551 12.376898 1.515205 0.000000 0.000000 0.000000 1.920244 -6.255916 -1.620278 3.285372 -1.881397 0.362495 -1.614582 1.201894 -1.090108 -0.252431 -13.721982 -46.286351 53.819230 -81.359479 47.492126 0.000000 0.000000 0.000000 4.616257 -5.766194 -1.458907 2.001930 6.336947 6.410708 0.642912 5.807331 5.482619 -24.128938 4.107190 25.320826 -145.315089 72.662722 157.974393 0.000000 0.000000 0.000000 
16.055250 39.321587 -10.877201 0.000000 0.000000 0.000000 3.645723 -24.565305 9.922842 -104.946150 -21.107144 35.983059 71.594705 -8.262651 1.285439 48.604347 15.526652 -28.171820 -2.500634 -5.996407 -1.333692 0.000000 0.000000 0.000000 1.399547 -23.192795 9.309447 -28.972689 -9.966452 -25.641495 116.258098 18.126576 -16.941523 23.737974 -29.324488 43.615781 18.105343 2.811132 -32.587447 0.000000 0.000000 0.000000 1.123283 -14.244473 8.908296 7.343393 -1.594931 -6.787922 2.577987 -7.320978 -0.499795 0.124361 -0.095505 0.005217 0.000000 0.000000 0.000000 2.697620 -4.874855 -1.239789 -4.753917 7.137197 9.226082 -9.012547 13.430819 1.666251 0.000000 0.000000 0.000000 1.794953 -6.312464 -1.713572 3.217500 -1.944386 0.777466 -1.637684 1.257735 -1.141933 -0.101680 -13.607060 -46.554839 51.720450 -81.119220 45.398608 0.000000 0.000000 0.000000 4.476911 -5.815915 -1.558167 2.077619 6.762338 6.895808 0.852908 5.920641 5.703921 -23.016945 4.568477 23.756638 -151.450238 70.344849 163.939976 0.000000 0.000000 0.000000 
15.997474 39.316128 -10.912899 0.000000 0.000000 0.000000 3.555033 -24.589005 9.866655 -104.839442 -21.019873 36.171599 71.548499 -8.212016 1.218996 48.659333 15.469769 -27.975441 -2.519286 -6.005977 -1.342964 0.000000 0.000000 0.000000 1.297901 -23.147048 9.235277 -28.828992 -10.188398 -25.490254 116.158555 18.055407 -16.916379 23.826036 -29.222039 43.543610 18.519442 2.685334 -32.756638 0.000000 0.000000 0.000000 0.973614 -14.279954 8.846040 7.389956 -1.370977 -6.967735 2.504753 -7.335388 -0.618257 0.128634 -0.099193 -0.006337 0.000000 0.000000 0.000000 2.614135 -4.916644 -1.340416 -5.152883 6.986217 9.232199 -8.789677 14.581066 1.768186 0.000000 0.000000 0.000000 1.694812 -6.349360 -1.820042 3.124605 -1.947383 1.162879 -1.656267 1.288892 -1.101582 -0.018755 -13.513603 -46.809848 49.899931 -80.874781 43.559296 0.000000 0.000000 0.000000 4.373668 -5.848583 -1.664637 2.150987 7.208190 7.401996 1.118369 5.961473 5.950101 -21.685420 5.183130 22.234479 -155.759049 68.202574 168.138876 0.000000 0.000000 0.000000 
15.930022 39.304825 -10.953037 0.000000 0.000000 0.000000 3.447850 -24.593826 9.778553 -104.757371 -20.907701 36.382095 71.511589 -8.160234 1.171960 48.682863 15.389685 -27.726881 -2.498132 -6.023977 -1.286562 0.000000 0.000000 0.000000 1.178518 -23.052860 9.129027 -28.592099 -10.459087 -25.308305 116.036144 17.985075 -16.902888 23.871183 -29.149113 43.539171 18.786492 2.600562 -32.966584 0.000000 0.000000 0.000000 0.782009 -14.292328 8.772899 7.434523 -1.168948 -7.165808 2.453370 -7.319102 -0.748407 0.146517 -0.109343 -0.009044 0.000000 0.000000 0.000000 2.547010 -4.926767 -1.455667 -5.577319 6.910432 9.238668 -8.703591 15.784304 1.868950 0.000000 0.000000 0.000000 1.617943 -6.356902 -1.941353 3.007981 -1.895272 1.550130 -1.661606 1.314680 -1.006680 0.056502 -13.456172 -47.081361 48.416663 -80.673755 42.030836 0.000000 0.000000 0.000000 4.301512 -5.857983 -1.777222 2.217654 7.622033 7.882099 1.354650 5.950849 6.226532 -19.974262 5.990369 20.718911 -158.929213 66.254618 171.239372 0.000000 0.000000 0.000000 
15.851325 39.298767 -11.003922 0.000000 0.000000 0.000000 3.324873 -24.558604 9.677248 -104.698153 -20.754933 36.598756 71.435753 -8.102257 1.141377 48.678441 15.282036 -27.440500 -2.426305 -6.054188 -1.154121 0.000000 0.000000 0.000000 1.057418 -22.938970 9.020499 -28.276259 -10.759787 -25.100961 115.896111 17.913201 -16.899947 23.820896 -29.141221 43.541513 19.023301 2.526715 -33.193719 0.000000 0.000000 0.000000 0.560626 -14.269160 8.703232 7.474394 -0.987099 -7.388068 2.414045 -7.272440 -0.887321 0.159134 -0.119107 -0.000195 0.000000 0.000000 0.000000 2.493840 -4.901155 -1.586672 -6.026171 6.908086 9.261586 -8.776732 16.978694 2.022974 0.000000 0.000000 0.000000 1.555885 -6.335632 -2.070516 2.871640 -1.805447 1.952355 -1.629966 1.349227 -0.899657 0.155574 -13.437287 -47.392651 47.375398 -80.547014 40.916750 0.000000 0.000000 0.000000 4.233988 -5.845504 -1.894622 2.275795 7.967851 8.279338 1.627491 5.877325 6.457186 -17.902353 6.869155 19.353402 -161.401878 64.439775 173.650429 0.000000 0.000000 0.000000 
